# xmcd CD database file
#
# Track frame offsets:
#	150
#	15533
#	34256
#	49107
#	70285
#	88850
#	102308
#	120972
#	138756
#	157503
#
# Disc length: 2422 seconds
#
# Revision: 0
# Processed by: cddbd v1.5.1PL0 Copyright (c) Steve Scherf et al.
# Submitted via: CDex 1.51
#
DISCID=7309740a
DTITLE=Darell Arnold and the dead Buffaloes - Everyday Stories
DYEAR=2001
DGENRE=Country
TTITLE0=Give What You Can
TTITLE1=Desire
TTITLE2=Nothin´ Ventured
TTITLE3=Case 1327
TTITLE4=Waltz
TTITLE5=Sink Into Serenity
TTITLE6=50 Dollars Of Love
TTITLE7=Jack And Jill
TTITLE8=Fools Game
TTITLE9=Dark Streets Of America
EXTD=YEAR: 2001
EXTT0=
EXTT1=
EXTT2=
EXTT3=
EXTT4=
EXTT5=
EXTT6=
EXTT7=
EXTT8=
EXTT9=
PLAYORDER=
